<svg width="229" height="101" viewBox="0 0 229 101" fill="none" xmlns="http://www.w3.org/2000/svg">
<path d="M36.9277 34H31.6191V23.3125H20.1934V34H14.8848V8.63477H20.1934V18.9355H31.6191V8.63477H36.9277V34ZM58.1094 34L56.1758 27.8477H47.2637L45.3301 34H39.8809L48.6875 8.63477H54.9277L63.752 34H58.1094ZM51.6582 13.4863L48.4062 23.875H55.0332L51.7812 13.4863H51.6582ZM95.6211 34H90.3301V13.0293H79.168V34H73.8418V8.63477H95.6211V34ZM102.705 11.7285C104.908 9.37305 107.891 8.19531 111.652 8.19531C115.414 8.19531 118.391 9.37305 120.582 11.7285C122.785 14.084 123.887 17.2832 123.887 21.3262C123.887 25.3574 122.785 28.5508 120.582 30.9062C118.379 33.2617 115.402 34.4395 111.652 34.4395C107.891 34.4395 104.908 33.2617 102.705 30.9062C100.514 28.5508 99.418 25.3574 99.418 21.3262C99.418 17.2832 100.514 14.084 102.705 11.7285ZM116.609 14.9805C115.379 13.4102 113.727 12.625 111.652 12.625C109.578 12.625 107.92 13.4102 106.678 14.9805C105.447 16.5508 104.832 18.666 104.832 21.3262C104.832 23.9746 105.447 26.084 106.678 27.6543C107.908 29.2129 109.566 29.9922 111.652 29.9922C113.727 29.9922 115.379 29.2129 116.609 27.6543C117.84 26.084 118.455 23.9746 118.455 21.3262C118.455 18.666 117.84 16.5508 116.609 14.9805ZM127.666 8.63477H137.984C140.598 8.63477 142.713 9.43164 144.33 11.0254C145.959 12.6191 146.773 14.7168 146.773 17.3184C146.773 19.9082 145.936 22.0059 144.26 23.6113C142.584 25.2051 140.404 26.002 137.721 26.002H132.975V34H127.666V8.63477ZM132.975 12.8359V21.8535H136.561C138.084 21.8535 139.268 21.4609 140.111 20.6758C140.955 19.8906 141.377 18.7773 141.377 17.3359C141.377 15.8945 140.955 14.7871 140.111 14.0137C139.279 13.2285 138.102 12.8359 136.578 12.8359H132.975ZM152.943 11.7285C155.146 9.37305 158.129 8.19531 161.891 8.19531C165.652 8.19531 168.629 9.37305 170.82 11.7285C173.023 14.084 174.125 17.2832 174.125 21.3262C174.125 25.3574 173.023 28.5508 170.82 30.9062C168.617 33.2617 165.641 34.4395 161.891 34.4395C158.129 34.4395 155.146 33.2617 152.943 30.9062C150.752 28.5508 149.656 25.3574 149.656 21.3262C149.656 17.2832 150.752 14.084 152.943 11.7285ZM166.848 14.9805C165.617 13.4102 163.965 12.625 161.891 12.625C159.816 12.625 158.158 13.4102 156.916 14.9805C155.686 16.5508 155.07 18.666 155.07 21.3262C155.07 23.9746 155.686 26.084 156.916 27.6543C158.146 29.2129 159.805 29.9922 161.891 29.9922C163.965 29.9922 165.617 29.2129 166.848 27.6543C168.078 26.084 168.693 23.9746 168.693 21.3262C168.693 18.666 168.078 16.5508 166.848 14.9805ZM183.23 34H177.904V8.63477H194.252V13.0293H183.23V34ZM214.467 29.6055V34H197.662V8.63477H214.467V13.0117H202.971V19.1289H213.816V23.207H202.971V29.6055H214.467Z" fill="white"/>
<path d="M18.7761 76.128C17.7307 76.128 16.8187 75.8933 16.0401 75.424C15.2721 74.9547 14.6801 74.288 14.2641 73.424C13.8481 72.56 13.6401 71.5413 13.6401 70.368C13.6401 69.184 13.8427 68.16 14.2481 67.296C14.6641 66.4213 15.2561 65.7547 16.0241 65.296C16.8027 64.8267 17.7201 64.592 18.7761 64.592C19.8321 64.592 20.7441 64.8267 21.5121 65.296C22.2907 65.7547 22.8827 66.4213 23.2881 67.296C23.7041 68.16 23.9121 69.1787 23.9121 70.352C23.9121 71.5253 23.7041 72.5493 23.2881 73.424C22.8721 74.288 22.2747 74.9547 21.4961 75.424C20.7281 75.8933 19.8214 76.128 18.7761 76.128ZM18.7761 75.008C19.9707 75.008 20.8987 74.608 21.5601 73.808C22.2321 72.9973 22.5681 71.8453 22.5681 70.352C22.5681 68.8587 22.2374 67.712 21.5761 66.912C20.9147 66.112 19.9814 65.712 18.7761 65.712C17.5814 65.712 16.6481 66.1173 15.9761 66.928C15.3147 67.728 14.9841 68.8693 14.9841 70.352C14.9841 71.8347 15.3147 72.9813 15.9761 73.792C16.6481 74.6027 17.5814 75.008 18.7761 75.008ZM29.5388 76.112C28.6748 76.112 27.9601 75.8933 27.3948 75.456C26.8401 75.0187 26.4348 74.4587 26.1788 73.776C25.9335 73.0827 25.8108 72.336 25.8108 71.536C25.8108 70.2773 25.9175 69.2533 26.1308 68.464C26.3548 67.6747 26.6695 67.0613 27.0748 66.624C27.4801 66.1867 28.0028 65.824 28.6428 65.536C28.9841 65.376 29.5015 65.1947 30.1948 64.992C30.9415 64.768 31.5441 64.5547 32.0028 64.352C32.0988 64.3093 32.2001 64.288 32.3068 64.288C32.4668 64.288 32.5948 64.3413 32.6908 64.448C32.7868 64.544 32.8348 64.6613 32.8348 64.8C32.8348 64.9067 32.8028 65.0133 32.7388 65.12C32.6748 65.216 32.5788 65.296 32.4508 65.36C32.1948 65.5093 31.9121 65.6373 31.6028 65.744C31.3041 65.8507 30.9201 65.9733 30.4508 66.112C29.7148 66.3467 29.2775 66.4907 29.1388 66.544C28.4455 66.7893 27.9121 67.1947 27.5388 67.76C27.1655 68.3147 26.9681 69.0987 26.9468 70.112C27.1815 69.5573 27.5495 69.0987 28.0508 68.736C28.5628 68.3627 29.1868 68.176 29.9228 68.176C30.9041 68.176 31.7041 68.5067 32.3228 69.168C32.9521 69.8293 33.2668 70.8107 33.2668 72.112C33.2668 72.8373 33.1175 73.504 32.8188 74.112C32.5308 74.72 32.1041 75.2053 31.5388 75.568C30.9735 75.9307 30.3068 76.112 29.5388 76.112ZM29.5388 75.04C30.3708 75.04 30.9788 74.7467 31.3628 74.16C31.7468 73.5627 31.9388 72.8853 31.9388 72.128C31.9388 71.232 31.7415 70.5333 31.3468 70.032C30.9521 69.52 30.3975 69.264 29.6828 69.264C29.1281 69.264 28.6588 69.408 28.2748 69.696C27.9015 69.9733 27.6241 70.336 27.4428 70.784C27.2615 71.2213 27.1708 71.6747 27.1708 72.144C27.1708 72.9547 27.3575 73.6427 27.7308 74.208C28.1041 74.7627 28.7068 75.04 29.5388 75.04ZM37.2566 76C37.0539 76 36.8886 75.9413 36.7606 75.824C36.6432 75.7067 36.5846 75.552 36.5846 75.36V69.216H34.6006C34.4512 69.216 34.3286 69.168 34.2326 69.072C34.1472 68.976 34.1046 68.8533 34.1046 68.704C34.1046 68.5547 34.1472 68.4373 34.2326 68.352C34.3286 68.256 34.4512 68.208 34.6006 68.208H37.1766C37.3792 68.208 37.5392 68.2667 37.6566 68.384C37.7846 68.5013 37.8486 68.6613 37.8486 68.864V70.992H39.3526C41.3366 70.992 42.3286 71.7867 42.3286 73.376C42.3286 73.9627 42.1846 74.4533 41.8966 74.848C41.6086 75.2427 41.2299 75.536 40.7606 75.728C40.3019 75.9093 39.8112 76 39.2886 76H37.2566ZM39.0806 75.024C39.6246 75.024 40.0832 74.896 40.4566 74.64C40.8299 74.3733 41.0166 73.9733 41.0166 73.44C41.0166 72.896 40.8459 72.5173 40.5046 72.304C40.1632 72.08 39.6886 71.968 39.0806 71.968H37.8326V75.024H39.0806ZM50.0054 74.192C50.1228 74.192 50.2241 74.24 50.3094 74.336C50.3948 74.432 50.4374 74.5547 50.4374 74.704C50.4374 74.9707 50.2508 75.216 49.8774 75.44C49.4934 75.664 49.0881 75.8347 48.6614 75.952C48.2348 76.0587 47.8188 76.112 47.4134 76.112C46.2081 76.112 45.2534 75.7547 44.5494 75.04C43.8561 74.3253 43.5094 73.3387 43.5094 72.08C43.5094 71.28 43.6641 70.576 43.9734 69.968C44.2828 69.3493 44.7148 68.8693 45.2694 68.528C45.8348 68.1867 46.4748 68.016 47.1894 68.016C48.2028 68.016 49.0081 68.3467 49.6054 69.008C50.2028 69.6693 50.5014 70.5653 50.5014 71.696C50.5014 71.9093 50.4588 72.064 50.3734 72.16C50.2881 72.256 50.1494 72.304 49.9574 72.304H44.8054C44.9014 74.1387 45.7708 75.056 47.4134 75.056C47.8294 75.056 48.1868 75.0027 48.4854 74.896C48.7841 74.7787 49.1041 74.624 49.4454 74.432C49.7228 74.272 49.9094 74.192 50.0054 74.192ZM47.2054 69.024C46.5228 69.024 45.9734 69.2373 45.5574 69.664C45.1521 70.0907 44.9121 70.6933 44.8374 71.472H49.3654C49.3441 70.6827 49.1468 70.08 48.7734 69.664C48.4001 69.2373 47.8774 69.024 47.2054 69.024ZM51.9789 78.112C51.7976 78.112 51.6483 78.0533 51.5309 77.936C51.4243 77.8293 51.3709 77.68 51.3709 77.488V75.648C51.3709 75.4453 51.4243 75.2853 51.5309 75.168C51.6376 75.04 51.7763 74.976 51.9469 74.976H52.2349C52.6189 74.4213 52.8909 73.76 53.0509 72.992C53.2109 72.224 53.2909 71.2213 53.2909 69.984V68.88C53.2909 68.6773 53.3496 68.5173 53.4669 68.4C53.5843 68.272 53.7443 68.208 53.9469 68.208H57.9629C58.1656 68.208 58.3256 68.2667 58.4429 68.384C58.5709 68.5013 58.6349 68.6613 58.6349 68.864V74.976H59.1789C59.3816 74.976 59.5416 75.0347 59.6589 75.152C59.7869 75.2693 59.8509 75.4293 59.8509 75.632V77.488C59.8509 77.68 59.7976 77.8293 59.6909 77.936C59.5843 78.0533 59.4349 78.112 59.2429 78.112C59.0616 78.112 58.9123 78.0533 58.7949 77.936C58.6883 77.8293 58.6349 77.68 58.6349 77.488V76H52.5869V77.488C52.5869 77.68 52.5283 77.8293 52.4109 77.936C52.3043 78.0533 52.1603 78.112 51.9789 78.112ZM57.3549 69.232H54.4589V69.984C54.4589 72.3307 54.1176 73.9947 53.4349 74.976H57.3549V69.232ZM66.8346 68.464C66.9412 68.3147 67.0532 68.208 67.1706 68.144C67.2879 68.08 67.4266 68.048 67.5866 68.048C67.7892 68.048 67.9492 68.112 68.0666 68.24C68.1946 68.368 68.2586 68.528 68.2586 68.72V75.456C68.2586 75.6373 68.1999 75.7867 68.0826 75.904C67.9652 76.0213 67.8159 76.08 67.6346 76.08C67.4639 76.08 67.3146 76.0213 67.1866 75.904C67.0692 75.776 67.0106 75.6267 67.0106 75.456V69.872L62.8026 75.696C62.6212 75.952 62.3812 76.08 62.0826 76.08C61.8799 76.08 61.7146 76.0213 61.5866 75.904C61.4586 75.776 61.3946 75.616 61.3946 75.424V68.688C61.3946 68.5067 61.4532 68.3573 61.5706 68.24C61.6986 68.112 61.8532 68.048 62.0346 68.048C62.2159 68.048 62.3652 68.112 62.4826 68.24C62.5999 68.3573 62.6586 68.5067 62.6586 68.688V74.192L66.8346 68.464ZM71.2693 76.08C71.0666 76.08 70.9066 76.0267 70.7893 75.92C70.672 75.8027 70.6133 75.648 70.6133 75.456V68.688C70.6133 68.496 70.672 68.3413 70.7893 68.224C70.9066 68.1067 71.0666 68.048 71.2693 68.048C71.4613 68.048 71.616 68.1067 71.7333 68.224C71.8506 68.3413 71.9093 68.496 71.9093 68.688V71.472H76.1013V68.688C76.1013 68.496 76.16 68.3413 76.2773 68.224C76.4053 68.1067 76.5653 68.048 76.7573 68.048C76.9493 68.048 77.104 68.1067 77.2213 68.224C77.3386 68.3413 77.3973 68.496 77.3973 68.688L77.4133 75.424C77.4133 75.6267 77.3546 75.7867 77.2373 75.904C77.12 76.0213 76.96 76.08 76.7573 76.08C76.5653 76.08 76.4053 76.0213 76.2773 75.904C76.16 75.7867 76.1013 75.6267 76.1013 75.424V72.512H71.9093V75.456C71.9093 75.648 71.8506 75.8027 71.7333 75.92C71.616 76.0267 71.4613 76.08 71.2693 76.08ZM85.8179 74.192C85.9353 74.192 86.0366 74.24 86.1219 74.336C86.2073 74.432 86.2499 74.5547 86.2499 74.704C86.2499 74.9707 86.0633 75.216 85.6899 75.44C85.3059 75.664 84.9006 75.8347 84.4739 75.952C84.0473 76.0587 83.6313 76.112 83.2259 76.112C82.0206 76.112 81.0659 75.7547 80.3619 75.04C79.6686 74.3253 79.3219 73.3387 79.3219 72.08C79.3219 71.28 79.4766 70.576 79.7859 69.968C80.0953 69.3493 80.5273 68.8693 81.0819 68.528C81.6473 68.1867 82.2873 68.016 83.0019 68.016C84.0153 68.016 84.8206 68.3467 85.4179 69.008C86.0153 69.6693 86.3139 70.5653 86.3139 71.696C86.3139 71.9093 86.2713 72.064 86.1859 72.16C86.1006 72.256 85.9619 72.304 85.7699 72.304H80.6179C80.7139 74.1387 81.5833 75.056 83.2259 75.056C83.6419 75.056 83.9993 75.0027 84.2979 74.896C84.5966 74.7787 84.9166 74.624 85.2579 74.432C85.5353 74.272 85.7219 74.192 85.8179 74.192ZM83.0179 69.024C82.3353 69.024 81.7859 69.2373 81.3699 69.664C80.9646 70.0907 80.7246 70.6933 80.6499 71.472H85.1779C85.1566 70.6827 84.9593 70.08 84.5859 69.664C84.2126 69.2373 83.6899 69.024 83.0179 69.024ZM88.8474 76.08C88.6448 76.08 88.4848 76.0267 88.3674 75.92C88.2501 75.8027 88.1914 75.648 88.1914 75.456V68.688C88.1914 68.496 88.2501 68.3413 88.3674 68.224C88.4848 68.1067 88.6448 68.048 88.8474 68.048C89.0394 68.048 89.1941 68.1067 89.3114 68.224C89.4288 68.3413 89.4874 68.496 89.4874 68.688V71.472H93.6794V68.688C93.6794 68.496 93.7381 68.3413 93.8554 68.224C93.9834 68.1067 94.1434 68.048 94.3354 68.048C94.5274 68.048 94.6821 68.1067 94.7994 68.224C94.9168 68.3413 94.9754 68.496 94.9754 68.688L94.9914 75.424C94.9914 75.6267 94.9328 75.7867 94.8154 75.904C94.6981 76.0213 94.5381 76.08 94.3354 76.08C94.1434 76.08 93.9834 76.0213 93.8554 75.904C93.7381 75.7867 93.6794 75.6267 93.6794 75.424V72.512H89.4874V75.456C89.4874 75.648 89.4288 75.8027 89.3114 75.92C89.1941 76.0267 89.0394 76.08 88.8474 76.08ZM102.772 68.464C102.879 68.3147 102.991 68.208 103.108 68.144C103.225 68.08 103.364 68.048 103.524 68.048C103.727 68.048 103.887 68.112 104.004 68.24C104.132 68.368 104.196 68.528 104.196 68.72V75.456C104.196 75.6373 104.137 75.7867 104.02 75.904C103.903 76.0213 103.753 76.08 103.572 76.08C103.401 76.08 103.252 76.0213 103.124 75.904C103.007 75.776 102.948 75.6267 102.948 75.456V69.872L98.7401 75.696C98.5587 75.952 98.3187 76.08 98.0201 76.08C97.8174 76.08 97.6521 76.0213 97.5241 75.904C97.3961 75.776 97.3321 75.616 97.3321 75.424V68.688C97.3321 68.5067 97.3907 68.3573 97.5081 68.24C97.6361 68.112 97.7907 68.048 97.9721 68.048C98.1534 68.048 98.3027 68.112 98.4201 68.24C98.5374 68.3573 98.5961 68.5067 98.5961 68.688V74.192L102.772 68.464ZM112.615 74.192C112.732 74.192 112.833 74.24 112.919 74.336C113.004 74.432 113.047 74.5547 113.047 74.704C113.047 74.9707 112.86 75.216 112.487 75.44C112.103 75.664 111.697 75.8347 111.271 75.952C110.844 76.0587 110.428 76.112 110.023 76.112C108.817 76.112 107.863 75.7547 107.159 75.04C106.465 74.3253 106.119 73.3387 106.119 72.08C106.119 71.28 106.273 70.576 106.583 69.968C106.892 69.3493 107.324 68.8693 107.879 68.528C108.444 68.1867 109.084 68.016 109.799 68.016C110.812 68.016 111.617 68.3467 112.215 69.008C112.812 69.6693 113.111 70.5653 113.111 71.696C113.111 71.9093 113.068 72.064 112.983 72.16C112.897 72.256 112.759 72.304 112.567 72.304H107.415C107.511 74.1387 108.38 75.056 110.023 75.056C110.439 75.056 110.796 75.0027 111.095 74.896C111.393 74.7787 111.713 74.624 112.055 74.432C112.332 74.272 112.519 74.192 112.615 74.192ZM109.815 69.024C109.132 69.024 108.583 69.2373 108.167 69.664C107.761 70.0907 107.521 70.6933 107.447 71.472H111.975C111.953 70.6827 111.756 70.08 111.383 69.664C111.009 69.2373 110.487 69.024 109.815 69.024ZM126.425 68.048C126.628 68.048 126.788 68.1067 126.905 68.224C127.033 68.3413 127.097 68.5013 127.097 68.704V75.472C127.097 75.6533 127.039 75.8027 126.921 75.92C126.815 76.0267 126.671 76.08 126.489 76.08C126.308 76.08 126.159 76.0267 126.041 75.92C125.935 75.8027 125.881 75.6533 125.881 75.472L125.897 70.272L123.689 74.4C123.636 74.5067 123.556 74.592 123.449 74.656C123.353 74.72 123.241 74.752 123.113 74.752C122.985 74.752 122.868 74.72 122.761 74.656C122.665 74.592 122.591 74.5067 122.537 74.4L120.313 70.272L120.329 75.472C120.329 75.6533 120.271 75.8027 120.153 75.92C120.047 76.0267 119.903 76.08 119.721 76.08C119.54 76.08 119.391 76.0267 119.273 75.92C119.167 75.8027 119.113 75.6533 119.113 75.472V68.72C119.113 68.5173 119.172 68.3573 119.289 68.24C119.407 68.112 119.567 68.048 119.769 68.048C120.089 68.048 120.324 68.192 120.473 68.48L123.113 73.44L125.721 68.512C125.881 68.2027 126.116 68.048 126.425 68.048ZM132.69 76.112C131.954 76.112 131.303 75.9467 130.738 75.616C130.183 75.2853 129.751 74.816 129.442 74.208C129.143 73.5893 128.994 72.8747 128.994 72.064C128.994 71.2533 129.143 70.544 129.442 69.936C129.751 69.3173 130.183 68.8427 130.738 68.512C131.303 68.1813 131.954 68.016 132.69 68.016C133.426 68.016 134.076 68.1813 134.642 68.512C135.207 68.8427 135.639 69.3173 135.938 69.936C136.247 70.544 136.402 71.2533 136.402 72.064C136.402 72.8747 136.247 73.5893 135.938 74.208C135.639 74.816 135.207 75.2853 134.642 75.616C134.076 75.9467 133.426 76.112 132.69 76.112ZM132.69 75.04C133.458 75.04 134.044 74.7893 134.45 74.288C134.866 73.776 135.074 73.0347 135.074 72.064C135.074 71.1147 134.866 70.384 134.45 69.872C134.034 69.3493 133.447 69.088 132.69 69.088C131.932 69.088 131.346 69.3493 130.93 69.872C130.514 70.384 130.306 71.1147 130.306 72.064C130.306 73.024 130.508 73.76 130.914 74.272C131.33 74.784 131.922 75.04 132.69 75.04ZM140.164 70.16C140.164 71.8347 139.988 73.1253 139.636 74.032C139.295 74.9387 138.73 75.6107 137.94 76.048C137.866 76.08 137.775 76.096 137.668 76.096C137.508 76.096 137.375 76.048 137.268 75.952C137.172 75.856 137.124 75.7333 137.124 75.584C137.124 75.4773 137.151 75.376 137.204 75.28C137.258 75.184 137.338 75.1093 137.444 75.056C137.828 74.832 138.127 74.5333 138.34 74.16C138.564 73.7867 138.719 73.2907 138.804 72.672C138.9 72.0427 138.948 71.2107 138.948 70.176V68.88C138.948 68.6667 139.007 68.5013 139.124 68.384C139.242 68.2667 139.402 68.208 139.604 68.208H143.844C144.047 68.208 144.207 68.2667 144.324 68.384C144.452 68.5013 144.516 68.6613 144.516 68.864V75.456C144.516 75.6373 144.452 75.7867 144.324 75.904C144.207 76.0213 144.052 76.08 143.86 76.08C143.668 76.08 143.514 76.0213 143.396 75.904C143.279 75.7867 143.22 75.6373 143.22 75.456V69.232H140.164V70.16ZM150.112 76.112C149.376 76.112 148.725 75.9467 148.16 75.616C147.605 75.2853 147.173 74.816 146.864 74.208C146.565 73.5893 146.416 72.8747 146.416 72.064C146.416 71.2533 146.565 70.544 146.864 69.936C147.173 69.3173 147.605 68.8427 148.16 68.512C148.725 68.1813 149.376 68.016 150.112 68.016C150.848 68.016 151.498 68.1813 152.064 68.512C152.629 68.8427 153.061 69.3173 153.36 69.936C153.669 70.544 153.824 71.2533 153.824 72.064C153.824 72.8747 153.669 73.5893 153.36 74.208C153.061 74.816 152.629 75.2853 152.064 75.616C151.498 75.9467 150.848 76.112 150.112 76.112ZM150.112 75.04C150.88 75.04 151.466 74.7893 151.872 74.288C152.288 73.776 152.496 73.0347 152.496 72.064C152.496 71.1147 152.288 70.384 151.872 69.872C151.456 69.3493 150.869 69.088 150.112 69.088C149.354 69.088 148.768 69.3493 148.352 69.872C147.936 70.384 147.728 71.1147 147.728 72.064C147.728 73.024 147.93 73.76 148.336 74.272C148.752 74.784 149.344 75.04 150.112 75.04ZM155.323 78.112C155.141 78.112 154.992 78.0533 154.875 77.936C154.768 77.8293 154.715 77.68 154.715 77.488V75.648C154.715 75.4453 154.768 75.2853 154.875 75.168C154.981 75.04 155.12 74.976 155.291 74.976H155.579C155.963 74.4213 156.235 73.76 156.395 72.992C156.555 72.224 156.635 71.2213 156.635 69.984V68.88C156.635 68.6773 156.693 68.5173 156.811 68.4C156.928 68.272 157.088 68.208 157.291 68.208H161.307C161.509 68.208 161.669 68.2667 161.787 68.384C161.915 68.5013 161.979 68.6613 161.979 68.864V74.976H162.523C162.725 74.976 162.885 75.0347 163.003 75.152C163.131 75.2693 163.195 75.4293 163.195 75.632V77.488C163.195 77.68 163.141 77.8293 163.035 77.936C162.928 78.0533 162.779 78.112 162.587 78.112C162.405 78.112 162.256 78.0533 162.139 77.936C162.032 77.8293 161.979 77.68 161.979 77.488V76H155.931V77.488C155.931 77.68 155.872 77.8293 155.755 77.936C155.648 78.0533 155.504 78.112 155.323 78.112ZM160.699 69.232H157.803V69.984C157.803 72.3307 157.461 73.9947 156.779 74.976H160.699V69.232ZM170.63 74.192C170.748 74.192 170.849 74.24 170.934 74.336C171.02 74.432 171.062 74.5547 171.062 74.704C171.062 74.9707 170.876 75.216 170.502 75.44C170.118 75.664 169.713 75.8347 169.286 75.952C168.86 76.0587 168.444 76.112 168.038 76.112C166.833 76.112 165.878 75.7547 165.174 75.04C164.481 74.3253 164.134 73.3387 164.134 72.08C164.134 71.28 164.289 70.576 164.598 69.968C164.908 69.3493 165.34 68.8693 165.894 68.528C166.46 68.1867 167.1 68.016 167.814 68.016C168.828 68.016 169.633 68.3467 170.23 69.008C170.828 69.6693 171.126 70.5653 171.126 71.696C171.126 71.9093 171.084 72.064 170.998 72.16C170.913 72.256 170.774 72.304 170.582 72.304H165.43C165.526 74.1387 166.396 75.056 168.038 75.056C168.454 75.056 168.812 75.0027 169.11 74.896C169.409 74.7787 169.729 74.624 170.07 74.432C170.348 74.272 170.534 74.192 170.63 74.192ZM167.83 69.024C167.148 69.024 166.598 69.2373 166.182 69.664C165.777 70.0907 165.537 70.6933 165.462 71.472H169.99C169.969 70.6827 169.772 70.08 169.398 69.664C169.025 69.2373 168.502 69.024 167.83 69.024ZM177.372 76.08C177.191 76.08 177.036 76.0213 176.908 75.904C176.791 75.7867 176.732 75.632 176.732 75.44V72.464H176.092C175.633 72.464 175.265 72.5707 174.988 72.784C174.721 72.9973 174.487 73.328 174.284 73.776L173.42 75.68C173.303 75.9467 173.111 76.08 172.844 76.08C172.673 76.08 172.519 76.0213 172.38 75.904C172.252 75.7867 172.188 75.6427 172.188 75.472C172.188 75.4187 172.209 75.328 172.252 75.2L173.004 73.568C173.26 73.0347 173.516 72.6293 173.772 72.352C174.028 72.0747 174.359 71.888 174.764 71.792L172.78 69.008C172.695 68.8693 172.652 68.7467 172.652 68.64C172.652 68.48 172.711 68.3467 172.828 68.24C172.956 68.1227 173.1 68.064 173.26 68.064C173.473 68.064 173.644 68.1653 173.772 68.368L175.948 71.552H176.732V68.704C176.732 68.512 176.791 68.3573 176.908 68.24C177.036 68.112 177.191 68.048 177.372 68.048C177.564 68.048 177.719 68.1067 177.836 68.224C177.953 68.3413 178.012 68.5013 178.012 68.704V71.552H178.812L180.956 68.384C181.095 68.1707 181.271 68.064 181.484 68.064C181.644 68.064 181.783 68.1227 181.9 68.24C182.028 68.3467 182.092 68.48 182.092 68.64C182.092 68.768 182.049 68.8907 181.964 69.008L179.996 71.792C180.401 71.888 180.732 72.0747 180.988 72.352C181.244 72.6187 181.495 73.024 181.74 73.568L182.508 75.2C182.551 75.2853 182.572 75.376 182.572 75.472C182.572 75.6533 182.503 75.8027 182.364 75.92C182.225 76.0373 182.071 76.096 181.9 76.096C181.783 76.096 181.671 76.064 181.564 76C181.468 75.9253 181.393 75.824 181.34 75.696L180.476 73.776C180.263 73.328 180.017 72.9973 179.74 72.784C179.473 72.5707 179.111 72.464 178.652 72.464H178.012V75.44C178.012 75.632 177.953 75.7867 177.836 75.904C177.719 76.0213 177.564 76.08 177.372 76.08ZM184.738 76.08C184.535 76.08 184.375 76.0267 184.258 75.92C184.141 75.8027 184.082 75.648 184.082 75.456V68.688C184.082 68.496 184.141 68.3413 184.258 68.224C184.375 68.1067 184.535 68.048 184.738 68.048C184.93 68.048 185.085 68.1067 185.202 68.224C185.319 68.3413 185.378 68.496 185.378 68.688V71.472H189.57V68.688C189.57 68.496 189.629 68.3413 189.746 68.224C189.874 68.1067 190.034 68.048 190.226 68.048C190.418 68.048 190.573 68.1067 190.69 68.224C190.807 68.3413 190.866 68.496 190.866 68.688L190.882 75.424C190.882 75.6267 190.823 75.7867 190.706 75.904C190.589 76.0213 190.429 76.08 190.226 76.08C190.034 76.08 189.874 76.0213 189.746 75.904C189.629 75.7867 189.57 75.6267 189.57 75.424V72.512H185.378V75.456C185.378 75.648 185.319 75.8027 185.202 75.92C185.085 76.0267 184.93 76.08 184.738 76.08ZM196.487 76.112C195.751 76.112 195.1 75.9467 194.535 75.616C193.98 75.2853 193.548 74.816 193.239 74.208C192.94 73.5893 192.791 72.8747 192.791 72.064C192.791 71.2533 192.94 70.544 193.239 69.936C193.548 69.3173 193.98 68.8427 194.535 68.512C195.1 68.1813 195.751 68.016 196.487 68.016C197.223 68.016 197.873 68.1813 198.439 68.512C199.004 68.8427 199.436 69.3173 199.735 69.936C200.044 70.544 200.199 71.2533 200.199 72.064C200.199 72.8747 200.044 73.5893 199.735 74.208C199.436 74.816 199.004 75.2853 198.439 75.616C197.873 75.9467 197.223 76.112 196.487 76.112ZM196.487 75.04C197.255 75.04 197.841 74.7893 198.247 74.288C198.663 73.776 198.871 73.0347 198.871 72.064C198.871 71.1147 198.663 70.384 198.247 69.872C197.831 69.3493 197.244 69.088 196.487 69.088C195.729 69.088 195.143 69.3493 194.727 69.872C194.311 70.384 194.103 71.1147 194.103 72.064C194.103 73.024 194.305 73.76 194.711 74.272C195.127 74.784 195.719 75.04 196.487 75.04ZM202.754 76.08C202.551 76.08 202.391 76.0267 202.274 75.92C202.156 75.8027 202.098 75.648 202.098 75.456V68.88C202.098 68.6773 202.156 68.5173 202.274 68.4C202.391 68.272 202.551 68.208 202.754 68.208H206.77C206.93 68.208 207.058 68.256 207.154 68.352C207.25 68.448 207.298 68.5707 207.298 68.72C207.298 68.8693 207.25 68.992 207.154 69.088C207.058 69.184 206.93 69.232 206.77 69.232H203.394V75.456C203.394 75.648 203.335 75.8027 203.218 75.92C203.1 76.0267 202.946 76.08 202.754 76.08ZM211.893 76.112C211.157 76.112 210.506 75.9467 209.941 75.616C209.386 75.2853 208.954 74.816 208.645 74.208C208.346 73.5893 208.197 72.8747 208.197 72.064C208.197 71.2533 208.346 70.544 208.645 69.936C208.954 69.3173 209.386 68.8427 209.941 68.512C210.506 68.1813 211.157 68.016 211.893 68.016C212.629 68.016 213.28 68.1813 213.845 68.512C214.41 68.8427 214.842 69.3173 215.141 69.936C215.45 70.544 215.605 71.2533 215.605 72.064C215.605 72.8747 215.45 73.5893 215.141 74.208C214.842 74.816 214.41 75.2853 213.845 75.616C213.28 75.9467 212.629 76.112 211.893 76.112ZM211.893 75.04C212.661 75.04 213.248 74.7893 213.653 74.288C214.069 73.776 214.277 73.0347 214.277 72.064C214.277 71.1147 214.069 70.384 213.653 69.872C213.237 69.3493 212.65 69.088 211.893 69.088C211.136 69.088 210.549 69.3493 210.133 69.872C209.717 70.384 209.509 71.1147 209.509 72.064C209.509 73.024 209.712 73.76 210.117 74.272C210.533 74.784 211.125 75.04 211.893 75.04ZM67.4785 98.112C66.7532 98.112 66.1078 97.9467 65.5425 97.616C64.9878 97.2853 64.5558 96.816 64.2465 96.208C63.9478 95.6 63.7985 94.896 63.7985 94.096C63.7985 93.296 63.9532 92.5867 64.2625 91.968C64.5825 91.3493 65.0252 90.8693 65.5905 90.528C66.1558 90.1867 66.8065 90.016 67.5425 90.016C67.9478 90.016 68.3478 90.0747 68.7425 90.192C69.1478 90.2987 69.4998 90.4587 69.7985 90.672C69.9905 90.8 70.1238 90.928 70.1985 91.056C70.2838 91.1733 70.3265 91.3067 70.3265 91.456C70.3265 91.6053 70.2838 91.728 70.1985 91.824C70.1238 91.92 70.0225 91.968 69.8945 91.968C69.8198 91.968 69.7398 91.9467 69.6545 91.904C69.5692 91.8613 69.4945 91.8187 69.4305 91.776C69.3772 91.7333 69.3398 91.7067 69.3185 91.696C69.0412 91.5147 68.7745 91.3707 68.5185 91.264C68.2732 91.1573 67.9692 91.104 67.6065 91.104C66.8278 91.104 66.2198 91.3707 65.7825 91.904C65.3558 92.4267 65.1425 93.1573 65.1425 94.096C65.1425 95.0347 65.3558 95.76 65.7825 96.272C66.2198 96.784 66.8278 97.04 67.6065 97.04C67.9692 97.04 68.2785 96.9867 68.5345 96.88C68.8012 96.7733 69.0678 96.6293 69.3345 96.448C69.4518 96.3733 69.5638 96.3093 69.6705 96.256C69.7772 96.2027 69.8678 96.176 69.9425 96.176C70.0598 96.176 70.1558 96.224 70.2305 96.32C70.3158 96.416 70.3585 96.5387 70.3585 96.688C70.3585 96.8267 70.3212 96.9547 70.2465 97.072C70.1718 97.1787 70.0332 97.3013 69.8305 97.44C69.5318 97.6427 69.1692 97.808 68.7425 97.936C68.3265 98.0533 67.9052 98.112 67.4785 98.112ZM75.1028 90.016C77.0548 90.016 78.0308 91.04 78.0308 93.088V97.44C78.0308 97.632 77.9721 97.7867 77.8548 97.904C77.7481 98.0213 77.5988 98.08 77.4068 98.08C77.2148 98.08 77.0601 98.0213 76.9428 97.904C76.8254 97.7867 76.7668 97.632 76.7668 97.44V96.672C76.5641 97.1307 76.2548 97.488 75.8388 97.744C75.4228 97.9893 74.9428 98.112 74.3988 98.112C73.8974 98.112 73.4334 98.0107 73.0068 97.808C72.5908 97.6053 72.2601 97.3227 72.0148 96.96C71.7694 96.5973 71.6468 96.1973 71.6468 95.76C71.6468 95.1733 71.7961 94.72 72.0948 94.4C72.3934 94.0693 72.8841 93.8347 73.5668 93.696C74.2494 93.5467 75.1988 93.472 76.4148 93.472H76.7668V92.944C76.7668 92.304 76.6334 91.8347 76.3668 91.536C76.1108 91.2373 75.6894 91.088 75.1028 91.088C74.3774 91.088 73.6414 91.2853 72.8948 91.68C72.6068 91.8613 72.4041 91.952 72.2868 91.952C72.1588 91.952 72.0521 91.904 71.9668 91.808C71.8814 91.712 71.8388 91.5893 71.8388 91.44C71.8388 91.2907 71.8814 91.1627 71.9668 91.056C72.0628 90.9387 72.2121 90.8213 72.4148 90.704C72.7881 90.4907 73.2094 90.3253 73.6788 90.208C74.1588 90.08 74.6334 90.016 75.1028 90.016ZM74.5748 97.088C75.2148 97.088 75.7374 96.8747 76.1428 96.448C76.5588 96.0107 76.7668 95.4507 76.7668 94.768V94.304H76.4788C75.5401 94.304 74.8254 94.3467 74.3348 94.432C73.8441 94.5067 73.4921 94.64 73.2788 94.832C73.0761 95.0133 72.9748 95.2853 72.9748 95.648C72.9748 96.064 73.1241 96.4107 73.4228 96.688C73.7321 96.9547 74.1161 97.088 74.5748 97.088ZM87.6831 90.048C87.8858 90.048 88.0458 90.1067 88.1631 90.224C88.2911 90.3413 88.3551 90.5013 88.3551 90.704V97.472C88.3551 97.6533 88.2965 97.8027 88.1791 97.92C88.0725 98.0267 87.9285 98.08 87.7471 98.08C87.5658 98.08 87.4165 98.0267 87.2991 97.92C87.1925 97.8027 87.1391 97.6533 87.1391 97.472L87.1551 92.272L84.9471 96.4C84.8938 96.5067 84.8138 96.592 84.7071 96.656C84.6111 96.72 84.4991 96.752 84.3711 96.752C84.2431 96.752 84.1258 96.72 84.0191 96.656C83.9231 96.592 83.8485 96.5067 83.7951 96.4L81.5711 92.272L81.5871 97.472C81.5871 97.6533 81.5285 97.8027 81.4111 97.92C81.3045 98.0267 81.1605 98.08 80.9791 98.08C80.7978 98.08 80.6485 98.0267 80.5311 97.92C80.4245 97.8027 80.3711 97.6533 80.3711 97.472V90.72C80.3711 90.5173 80.4298 90.3573 80.5471 90.24C80.6645 90.112 80.8245 90.048 81.0271 90.048C81.3471 90.048 81.5818 90.192 81.7311 90.48L84.3711 95.44L86.9791 90.512C87.1391 90.2027 87.3738 90.048 87.6831 90.048ZM93.9476 98.112C93.2116 98.112 92.561 97.9467 91.9956 97.616C91.441 97.2853 91.009 96.816 90.6996 96.208C90.401 95.5893 90.2516 94.8747 90.2516 94.064C90.2516 93.2533 90.401 92.544 90.6996 91.936C91.009 91.3173 91.441 90.8427 91.9956 90.512C92.561 90.1813 93.2116 90.016 93.9476 90.016C94.6836 90.016 95.3343 90.1813 95.8996 90.512C96.465 90.8427 96.897 91.3173 97.1956 91.936C97.505 92.544 97.6596 93.2533 97.6596 94.064C97.6596 94.8747 97.505 95.5893 97.1956 96.208C96.897 96.816 96.465 97.2853 95.8996 97.616C95.3343 97.9467 94.6836 98.112 93.9476 98.112ZM93.9476 97.04C94.7156 97.04 95.3023 96.7893 95.7076 96.288C96.1236 95.776 96.3316 95.0347 96.3316 94.064C96.3316 93.1147 96.1236 92.384 95.7076 91.872C95.2916 91.3493 94.705 91.088 93.9476 91.088C93.1903 91.088 92.6036 91.3493 92.1876 91.872C91.7716 92.384 91.5636 93.1147 91.5636 94.064C91.5636 95.024 91.7663 95.76 92.1716 96.272C92.5876 96.784 93.1796 97.04 93.9476 97.04ZM103.511 90.016C104.193 90.016 104.796 90.1867 105.319 90.528C105.841 90.8693 106.247 91.3493 106.535 91.968C106.823 92.576 106.967 93.2853 106.967 94.096C106.967 94.9067 106.823 95.616 106.535 96.224C106.247 96.8213 105.841 97.2853 105.319 97.616C104.807 97.9467 104.204 98.112 103.511 98.112C102.903 98.112 102.369 97.9787 101.911 97.712C101.463 97.4453 101.121 97.0667 100.887 96.576V100.336C100.887 100.528 100.828 100.677 100.711 100.784C100.604 100.901 100.449 100.96 100.247 100.96C100.044 100.96 99.884 100.901 99.7666 100.784C99.6493 100.667 99.5906 100.517 99.5906 100.336V90.688C99.5906 90.496 99.6493 90.3413 99.7666 90.224C99.884 90.1067 100.044 90.048 100.247 90.048C100.449 90.048 100.604 90.1067 100.711 90.224C100.828 90.3413 100.887 90.496 100.887 90.688V91.552C101.121 91.0613 101.463 90.6827 101.911 90.416C102.369 90.1493 102.903 90.016 103.511 90.016ZM103.255 97.04C104.012 97.04 104.599 96.784 105.015 96.272C105.431 95.76 105.639 95.0347 105.639 94.096C105.639 93.1573 105.431 92.4267 105.015 91.904C104.599 91.3707 104.012 91.104 103.255 91.104C102.497 91.104 101.911 91.36 101.495 91.872C101.089 92.384 100.887 93.1147 100.887 94.064C100.887 95.0133 101.089 95.7493 101.495 96.272C101.911 96.784 102.497 97.04 103.255 97.04ZM112.087 90.016C114.039 90.016 115.015 91.04 115.015 93.088V97.44C115.015 97.632 114.956 97.7867 114.839 97.904C114.732 98.0213 114.583 98.08 114.391 98.08C114.199 98.08 114.044 98.0213 113.927 97.904C113.81 97.7867 113.751 97.632 113.751 97.44V96.672C113.548 97.1307 113.239 97.488 112.823 97.744C112.407 97.9893 111.927 98.112 111.383 98.112C110.882 98.112 110.418 98.0107 109.991 97.808C109.575 97.6053 109.244 97.3227 108.999 96.96C108.754 96.5973 108.631 96.1973 108.631 95.76C108.631 95.1733 108.78 94.72 109.079 94.4C109.378 94.0693 109.868 93.8347 110.551 93.696C111.234 93.5467 112.183 93.472 113.399 93.472H113.751V92.944C113.751 92.304 113.618 91.8347 113.351 91.536C113.095 91.2373 112.674 91.088 112.087 91.088C111.362 91.088 110.626 91.2853 109.879 91.68C109.591 91.8613 109.388 91.952 109.271 91.952C109.143 91.952 109.036 91.904 108.951 91.808C108.866 91.712 108.823 91.5893 108.823 91.44C108.823 91.2907 108.866 91.1627 108.951 91.056C109.047 90.9387 109.196 90.8213 109.399 90.704C109.772 90.4907 110.194 90.3253 110.663 90.208C111.143 90.08 111.618 90.016 112.087 90.016ZM111.559 97.088C112.199 97.088 112.722 96.8747 113.127 96.448C113.543 96.0107 113.751 95.4507 113.751 94.768V94.304H113.463C112.524 94.304 111.81 94.3467 111.319 94.432C110.828 94.5067 110.476 94.64 110.263 94.832C110.06 95.0133 109.959 95.2853 109.959 95.648C109.959 96.064 110.108 96.4107 110.407 96.688C110.716 96.9547 111.1 97.088 111.559 97.088ZM119.74 98.112C118.62 98.112 117.686 97.8613 116.94 97.36C116.737 97.232 116.636 97.0667 116.636 96.864C116.636 96.736 116.684 96.624 116.78 96.528C116.886 96.4213 117.009 96.368 117.148 96.368C117.265 96.368 117.372 96.4 117.468 96.464C117.809 96.6667 118.145 96.816 118.476 96.912C118.817 97.008 119.212 97.056 119.66 97.056C120.204 97.056 120.684 96.9387 121.1 96.704C121.526 96.4693 121.74 96.1227 121.74 95.664C121.74 94.8853 121.206 94.496 120.14 94.496H118.924C118.774 94.496 118.652 94.448 118.556 94.352C118.46 94.256 118.412 94.1333 118.412 93.984C118.412 93.8453 118.46 93.7333 118.556 93.648C118.652 93.552 118.774 93.504 118.924 93.504H120.028C120.497 93.504 120.876 93.3867 121.164 93.152C121.452 92.9173 121.596 92.6133 121.596 92.24C121.596 91.8773 121.452 91.5947 121.164 91.392C120.876 91.1893 120.449 91.088 119.884 91.088C119.414 91.088 119.004 91.1413 118.652 91.248C118.31 91.3547 117.985 91.504 117.676 91.696C117.569 91.7493 117.473 91.776 117.388 91.776C117.238 91.776 117.11 91.728 117.004 91.632C116.908 91.5253 116.86 91.4027 116.86 91.264C116.86 91.0613 116.966 90.9067 117.18 90.8C118.022 90.2773 118.982 90.016 120.06 90.016C121.041 90.016 121.766 90.208 122.236 90.592C122.705 90.9653 122.94 91.472 122.94 92.112C122.94 92.496 122.817 92.8587 122.572 93.2C122.326 93.5307 121.985 93.7707 121.548 93.92C122.081 94.016 122.47 94.224 122.716 94.544C122.961 94.864 123.084 95.2587 123.084 95.728C123.084 96.464 122.764 97.0453 122.124 97.472C121.484 97.8987 120.689 98.112 119.74 98.112ZM125.621 98C125.419 98 125.253 97.9413 125.125 97.824C125.008 97.7067 124.949 97.552 124.949 97.36V90.88C124.949 90.6773 125.008 90.5173 125.125 90.4C125.243 90.272 125.403 90.208 125.605 90.208H128.373C129.227 90.208 129.888 90.3733 130.357 90.704C130.827 91.0347 131.061 91.5307 131.061 92.192C131.061 92.576 130.949 92.9333 130.725 93.264C130.501 93.5947 130.16 93.84 129.701 94C130.181 94.0853 130.56 94.288 130.837 94.608C131.125 94.928 131.269 95.3333 131.269 95.824C131.269 96.1867 131.168 96.5333 130.965 96.864C130.773 97.1947 130.464 97.4667 130.037 97.68C129.611 97.8933 129.077 98 128.437 98H125.621ZM128.277 93.568C128.725 93.568 129.088 93.456 129.365 93.232C129.643 92.9973 129.781 92.6827 129.781 92.288C129.781 91.5413 129.264 91.168 128.229 91.168H126.245V93.568H128.277ZM128.309 97.04C129.408 97.04 129.957 96.6187 129.957 95.776C129.957 95.3493 129.797 95.0293 129.477 94.816C129.157 94.6027 128.72 94.496 128.165 94.496H126.245V97.04H128.309ZM138.577 90.464C138.683 90.3147 138.795 90.208 138.913 90.144C139.03 90.08 139.169 90.048 139.329 90.048C139.531 90.048 139.691 90.112 139.809 90.24C139.937 90.368 140.001 90.528 140.001 90.72V97.456C140.001 97.6373 139.942 97.7867 139.825 97.904C139.707 98.0213 139.558 98.08 139.377 98.08C139.206 98.08 139.057 98.0213 138.929 97.904C138.811 97.776 138.753 97.6267 138.753 97.456V91.872L134.545 97.696C134.363 97.952 134.123 98.08 133.825 98.08C133.622 98.08 133.457 98.0213 133.329 97.904C133.201 97.776 133.137 97.616 133.137 97.424V90.688C133.137 90.5067 133.195 90.3573 133.313 90.24C133.441 90.112 133.595 90.048 133.777 90.048C133.958 90.048 134.107 90.112 134.225 90.24C134.342 90.3573 134.401 90.5067 134.401 90.688V96.192L138.577 90.464ZM144.772 98.08C144.58 98.08 144.425 98.0267 144.308 97.92C144.19 97.8027 144.132 97.648 144.132 97.456V91.232H141.844C141.684 91.232 141.556 91.184 141.46 91.088C141.364 90.992 141.316 90.8693 141.316 90.72C141.316 90.5707 141.364 90.448 141.46 90.352C141.556 90.256 141.684 90.208 141.844 90.208H147.7C147.86 90.208 147.988 90.256 148.084 90.352C148.18 90.448 148.228 90.5707 148.228 90.72C148.228 90.8693 148.18 90.992 148.084 91.088C147.988 91.184 147.86 91.232 147.7 91.232H145.428V97.456C145.428 97.648 145.364 97.8027 145.236 97.92C145.118 98.0267 144.964 98.08 144.772 98.08ZM154.967 90.464C155.074 90.3147 155.186 90.208 155.303 90.144C155.421 90.08 155.559 90.048 155.719 90.048C155.922 90.048 156.082 90.112 156.199 90.24C156.327 90.368 156.391 90.528 156.391 90.72V97.456C156.391 97.6373 156.333 97.7867 156.215 97.904C156.098 98.0213 155.949 98.08 155.767 98.08C155.597 98.08 155.447 98.0213 155.319 97.904C155.202 97.776 155.143 97.6267 155.143 97.456V91.872L150.935 97.696C150.754 97.952 150.514 98.08 150.215 98.08C150.013 98.08 149.847 98.0213 149.719 97.904C149.591 97.776 149.527 97.616 149.527 97.424V90.688C149.527 90.5067 149.586 90.3573 149.703 90.24C149.831 90.112 149.986 90.048 150.167 90.048C150.349 90.048 150.498 90.112 150.615 90.24C150.733 90.3573 150.791 90.5067 150.791 90.688V96.192L154.967 90.464ZM164.122 98.08C163.919 98.08 163.759 98.0267 163.642 97.92C163.525 97.8027 163.466 97.6427 163.466 97.44V95.072H162.474C162.047 95.072 161.679 95.168 161.37 95.36C161.071 95.552 160.799 95.8347 160.554 96.208L159.514 97.808C159.365 98.0213 159.178 98.128 158.954 98.128C158.794 98.128 158.65 98.0693 158.522 97.952C158.394 97.8347 158.33 97.696 158.33 97.536C158.33 97.4293 158.373 97.3067 158.458 97.168L159.13 96.096C159.354 95.744 159.599 95.4507 159.866 95.216C160.143 94.9813 160.426 94.8267 160.714 94.752C159.989 94.6453 159.466 94.3947 159.146 94C158.826 93.6053 158.666 93.1413 158.666 92.608C158.666 91.84 158.906 91.248 159.386 90.832C159.877 90.416 160.527 90.208 161.338 90.208H164.09C164.293 90.208 164.453 90.2667 164.57 90.384C164.687 90.5013 164.746 90.656 164.746 90.848V97.44C164.746 97.6427 164.687 97.8027 164.57 97.92C164.463 98.0267 164.314 98.08 164.122 98.08ZM163.466 91.184H161.69C161.125 91.184 160.687 91.3067 160.378 91.552C160.069 91.7973 159.914 92.1653 159.914 92.656C159.914 93.1787 160.079 93.552 160.41 93.776C160.751 93.9893 161.189 94.096 161.722 94.096H163.466V91.184Z" fill="white"/>
</svg>
